<svg xmlns="http://www.w3.org/2000/svg" width="256" height="256" viewBox="0 0 100 100"><rect width="100" height="100" rx="20" fill="#6eb4e7"></rect><path d="M55.80 79.65L55.80 79.65Q55.30 80.15 53.90 80.55Q52.50 80.95 50.80 80.95L50.80 80.95Q48.90 80.95 47.40 80.40Q45.90 79.85 45.40 78.75L45.40 78.75Q44.10 76.15 42.35 72.05Q40.60 67.95 38.65 62.90Q36.70 57.85 34.65 52.25Q32.60 46.65 30.70 41.15Q28.80 35.65 27.10 30.50Q25.40 25.35 24.20 21.25L24.20 21.25Q24.80 20.45 26 19.75Q27.20 19.05 28.70 19.05L28.70 19.05Q30.60 19.05 31.50 19.95Q32.40 20.85 33 22.65L33 22.65Q37.50 35.75 41.60 47.95Q45.70 60.15 50.60 72.75L50.60 72.75L51 72.75Q53.20 67.05 55.55 60.60Q57.90 54.15 60.15 47.30Q62.40 40.45 64.55 33.45Q66.70 26.45 68.40 19.75L68.40 19.75Q69.70 19.05 71.80 19.05L71.80 19.05Q73.60 19.05 74.70 19.95Q75.80 20.85 75.80 22.65L75.80 22.65Q75.80 24.15 74.65 28.30Q73.50 32.45 71.70 37.95Q69.90 43.45 67.65 49.75Q65.40 56.05 63.20 61.85Q61 67.65 59 72.45Q57 77.25 55.80 79.65Z" fill="#fff"></path></svg>